<svg width="600" height="525" viewBox="0 0 600 525" fill="none" xmlns="http://www.w3.org/2000/svg">
<path d="M597.6 499.6L313.8 8C310.9 3 305.6 0 299.9 0C294.2 0 288.9 3.1 286 8L2.20002 499.6C-0.699975 504.6 -0.699975 510.7 2.20002 515.6C5.10002 520.6 10.4 523.6 16.1 523.6H583.7C589.4 523.6 594.7 520.5 597.6 515.6C600.5 510.6 600.5 504.5 597.6 499.6Z" fill="black"/>
<path d="M44 491.525L300.005 50.0364L556.005 491.525H44Z" fill="#F9EF00"/>
<path d="M344.471 491.525H244.569V448.71C234.345 441.737 222.977 437.468 223.161 405.895L223.161 227.499C223.161 213.227 244.569 213.227 244.569 227.499V313.129H251.704V198.955C251.704 184.684 280.248 184.684 280.248 198.955V313.129H284.993V177.548C287.39 159.837 311.881 163.276 311.652 177.548V313.129H317.957V191.819C318.556 177.548 344.474 177.548 344.474 191.819V313.129H351.61V277.45C354.515 262.698 366.05 253.205 378.726 256.042V398.759C379.26 420.82 369.213 440.258 344.474 448.71L344.471 491.525Z" fill="black"/>
<path d="M300.974 339.612C300.165 339.611 299.364 339.624 298.552 339.658C273.487 340.224 250.631 357.067 236.532 379.822C259.717 419.233 313.61 429.443 346.038 398.52C352.774 393.198 358.568 386.729 363.268 379.038C349.157 356.408 326.048 339.639 300.977 339.608L300.974 339.612ZM325.471 357.524C333.694 362.697 340.885 370.133 346.266 378.761C342.827 384.389 338.581 389.178 333.652 393.072C309.923 415.701 270.5 408.2 253.534 379.361C258.892 370.712 265.956 363.238 274.097 357.984C272.035 362.201 271.016 366.859 271.128 371.561C270.953 375.487 271.567 379.408 272.933 383.088C274.3 386.768 276.391 390.13 279.079 392.971C281.768 395.812 284.999 398.073 288.576 399.618C292.154 401.163 296.005 401.96 299.895 401.96C303.786 401.96 307.637 401.163 311.215 399.618C314.792 398.073 318.023 395.812 320.712 392.971C323.4 390.13 325.491 386.768 326.858 383.088C328.224 379.408 328.838 375.487 328.663 371.561C328.777 366.685 327.676 361.859 325.46 357.526L325.471 357.524ZM298.97 358.086C300.82 357.953 302.677 358.206 304.425 358.831C306.174 359.456 307.775 360.438 309.131 361.716C310.486 362.995 311.566 364.542 312.303 366.26C313.04 367.979 313.417 369.833 313.413 371.707C313.413 375.319 311.992 378.783 309.463 381.338C306.934 383.892 303.505 385.327 299.928 385.327C296.352 385.327 292.922 383.892 290.393 381.338C287.865 378.783 286.444 375.319 286.444 371.707C286.435 368.257 287.723 364.932 290.046 362.404C292.37 359.876 295.557 358.333 298.963 358.086H298.97Z" fill="#F9EF00"/>
<path d="M389.289 394.857V374.857H439.289V359.857L469.289 384.857L439.289 409.857V394.857H389.289Z" fill="black"/>
<path d="M210.511 401.399V381.399H160.511V366.399L130.511 391.399L160.511 416.399V401.399H210.511Z" fill="black"/>
</svg>
