<svg width="22" height="24" viewBox="0 0 22 24" fill="none" xmlns="http://www.w3.org/2000/svg">
<path d="M11.3822 2.3578C11.4088 2.2592 11.5487 2.2592 11.5753 2.3578L13.3202 8.8243C13.3361 8.8834 13.401 8.91443 13.457 8.88979L19.3834 6.28305C19.4756 6.24251 19.5631 6.3482 19.5061 6.43119L15.7461 11.9068C15.7129 11.955 15.7281 12.0213 15.779 12.0503L21.4408 15.279C21.5275 15.3284 21.4962 15.4605 21.3966 15.4657L14.9634 15.806C14.9038 15.8092 14.8602 15.8636 14.8701 15.9224L15.9836 22.5511C16.0004 22.6513 15.8742 22.7098 15.8086 22.6322L11.5551 17.6003C11.5152 17.5531 11.4423 17.5531 11.4024 17.6003L7.14895 22.6322C7.08331 22.7098 6.95712 22.6513 6.97396 22.5511L8.08745 15.9224C8.09735 15.8636 8.05375 15.8092 7.99412 15.806L1.56098 15.4657C1.4613 15.4605 1.43002 15.3284 1.51673 15.279L7.17858 12.0503C7.22941 12.0213 7.2446 11.955 7.21147 11.9068L3.45139 6.43119C3.39441 6.3482 3.48194 6.24251 3.57409 6.28305L9.50053 8.88979C9.55657 8.91443 9.6214 8.8834 9.63734 8.8243L11.3822 2.3578Z" fill="#4C4C4C" stroke="#4C4C4C"/>
<path d="M10.4252 1.3578C10.4518 1.2592 10.5917 1.2592 10.6183 1.3578L12.3632 7.8243C12.3791 7.8834 12.4439 7.91443 12.5 7.88979L18.4264 5.28305C18.5186 5.24251 18.6061 5.3482 18.5491 5.43119L14.789 10.9068C14.7559 10.955 14.7711 11.0213 14.8219 11.0503L20.4838 14.279C20.5705 14.3284 20.5392 14.4605 20.4395 14.4657L14.0064 14.806C13.9468 14.8092 13.9032 14.8636 13.9131 14.9224L15.0265 21.5511C15.0434 21.6513 14.9172 21.7098 14.8516 21.6322L10.5981 16.6003C10.5582 16.5531 10.4853 16.5531 10.4454 16.6003L6.19192 21.6322C6.12627 21.7098 6.00009 21.6513 6.01693 21.5511L7.13042 14.9224C7.14032 14.8636 7.09672 14.8092 7.03709 14.806L0.60395 14.4657C0.504273 14.4605 0.472986 14.3284 0.559695 14.279L6.22154 11.0503C6.27238 11.0213 6.28757 10.955 6.25444 10.9068L2.49436 5.43119C2.43737 5.3482 2.52491 5.24251 2.61706 5.28305L8.5435 7.88979C8.59954 7.91443 8.66437 7.8834 8.68031 7.8243L10.4252 1.3578Z" fill="#D9D9D9"/>
<path d="M10.4252 1.3578C10.4518 1.2592 10.5917 1.2592 10.6183 1.3578L12.3632 7.8243C12.3791 7.8834 12.4439 7.91443 12.5 7.88979L18.4264 5.28305C18.5186 5.24251 18.6061 5.3482 18.5491 5.43119L14.789 10.9068C14.7559 10.955 14.7711 11.0213 14.8219 11.0503L20.4838 14.279C20.5705 14.3284 20.5392 14.4605 20.4395 14.4657L14.0064 14.806C13.9468 14.8092 13.9032 14.8636 13.9131 14.9224L15.0265 21.5511C15.0434 21.6513 14.9172 21.7098 14.8516 21.6322L10.5981 16.6003C10.5582 16.5531 10.4853 16.5531 10.4454 16.6003L6.19192 21.6322C6.12627 21.7098 6.00009 21.6513 6.01693 21.5511L7.13042 14.9224C7.14032 14.8636 7.09672 14.8092 7.03709 14.806L0.60395 14.4657C0.504273 14.4605 0.472986 14.3284 0.559695 14.279L6.22154 11.0503C6.27238 11.0213 6.28757 10.955 6.25444 10.9068L2.49436 5.43119C2.43737 5.3482 2.52491 5.24251 2.61706 5.28305L8.5435 7.88979C8.59954 7.91443 8.66437 7.8834 8.68031 7.8243L10.4252 1.3578Z" fill="url(#paint0_linear_212_929)"/>
<path d="M10.4252 1.3578C10.4518 1.2592 10.5917 1.2592 10.6183 1.3578L12.3632 7.8243C12.3791 7.8834 12.4439 7.91443 12.5 7.88979L18.4264 5.28305C18.5186 5.24251 18.6061 5.3482 18.5491 5.43119L14.789 10.9068C14.7559 10.955 14.7711 11.0213 14.8219 11.0503L20.4838 14.279C20.5705 14.3284 20.5392 14.4605 20.4395 14.4657L14.0064 14.806C13.9468 14.8092 13.9032 14.8636 13.9131 14.9224L15.0265 21.5511C15.0434 21.6513 14.9172 21.7098 14.8516 21.6322L10.5981 16.6003C10.5582 16.5531 10.4853 16.5531 10.4454 16.6003L6.19192 21.6322C6.12627 21.7098 6.00009 21.6513 6.01693 21.5511L7.13042 14.9224C7.14032 14.8636 7.09672 14.8092 7.03709 14.806L0.60395 14.4657C0.504273 14.4605 0.472986 14.3284 0.559695 14.279L6.22154 11.0503C6.27238 11.0213 6.28757 10.955 6.25444 10.9068L2.49436 5.43119C2.43737 5.3482 2.52491 5.24251 2.61706 5.28305L8.5435 7.88979C8.59954 7.91443 8.66437 7.8834 8.68031 7.8243L10.4252 1.3578Z" stroke="black"/>
<defs>
<linearGradient id="paint0_linear_212_929" x1="10.5221" y1="1" x2="10.5221" y2="24.1461" gradientUnits="userSpaceOnUse">
<stop stop-color="#FFFF00"/>
<stop offset="1" stop-color="white"/>
</linearGradient>
</defs>
</svg>
